<?xml version="1.0" encoding="UTF-8" standalone="no"?>
<svg
   xmlns:dc="http://purl.org/dc/elements/1.1/"
   xmlns:cc="http://creativecommons.org/ns#"
   xmlns:rdf="http://www.w3.org/1999/02/22-rdf-syntax-ns#"
   xmlns:svg="http://www.w3.org/2000/svg"
   xmlns="http://www.w3.org/2000/svg"
   xmlns:sodipodi="http://sodipodi.sourceforge.net/DTD/sodipodi-0.dtd"
   xmlns:inkscape="http://www.inkscape.org/namespaces/inkscape"
   version="1.1"
   id="svg46"
   xml:space="preserve"
   width="1042.8492"
   height="368.45599"
   viewBox="0 0 1042.8492 368.45599"
   sodipodi:docname="Copy of ICHEC Logo Mod_primary (1) copy.svg"
   inkscape:version="1.0.2 (e86c8708, 2021-01-15)"><metadata
     id="metadata52"><rdf:RDF><cc:Work
         rdf:about=""><dc:format>image/svg+xml</dc:format><dc:type
           rdf:resource="http://purl.org/dc/dcmitype/StillImage" /><dc:title></dc:title></cc:Work></rdf:RDF></metadata><defs
     id="defs50"><clipPath
       clipPathUnits="userSpaceOnUse"
       id="clipPath62"><path
         d="M 56.572,37.304 H 714.465 V 228.456 H 56.572 Z"
         id="path60" /></clipPath><clipPath
       clipPathUnits="userSpaceOnUse"
       id="clipPath76"><path
         d="M 56.572,37.304 H 714.465 V 228.456 H 56.572 Z"
         id="path74" /></clipPath><clipPath
       clipPathUnits="userSpaceOnUse"
       id="clipPath96"><path
         d="M 56.572,37.304 H 714.465 V 228.456 H 56.572 Z"
         id="path94" /></clipPath><clipPath
       clipPathUnits="userSpaceOnUse"
       id="clipPath110"><path
         d="M 56.572,37.304 H 714.465 V 228.456 H 56.572 Z"
         id="path108" /></clipPath><clipPath
       clipPathUnits="userSpaceOnUse"
       id="clipPath124"><path
         d="M 56.572,37.304 H 714.465 V 228.456 H 56.572 Z"
         id="path122" /></clipPath><clipPath
       clipPathUnits="userSpaceOnUse"
       id="clipPath182"><path
         d="M 56.572,37.304 H 714.465 V 228.456 H 56.572 Z"
         id="path180" /></clipPath><clipPath
       clipPathUnits="userSpaceOnUse"
       id="clipPath200"><path
         d="M 56.572,37.304 H 714.465 V 228.456 H 56.572 Z"
         id="path198" /></clipPath><clipPath
       clipPathUnits="userSpaceOnUse"
       id="clipPath246"><path
         d="M 56.572,37.304 H 714.465 V 228.456 H 56.572 Z"
         id="path244" /></clipPath></defs><sodipodi:namedview
     pagecolor="#ffffff"
     bordercolor="#666666"
     borderopacity="1"
     objecttolerance="10"
     gridtolerance="10"
     guidetolerance="10"
     inkscape:pageopacity="0"
     inkscape:pageshadow="2"
     inkscape:window-width="875"
     inkscape:window-height="480"
     id="namedview48"
     showgrid="false"
     inkscape:zoom="1.0097337"
     inkscape:cx="521.42462"
     inkscape:cy="184.228"
     inkscape:window-x="0"
     inkscape:window-y="23"
     inkscape:window-maximized="0"
     inkscape:current-layer="g54" /><g
     id="g54"
     inkscape:groupmode="layer"
     inkscape:label="Copy of ICHEC Logo Mod_primary (1) copy"
     transform="matrix(1.3333333,0,0,-1.3333333,0,368.456)"><g
       id="g56"><g
         id="g58"
         clip-path="url(#clipPath62)"><g
           id="g64"
           transform="translate(145.5544,37.3152)"><path
             d="m 0,0 v -0.008 c -1.044,0.53 -2.081,1.077 -3.1,1.641 -28.282,15.252 -50.082,34.714 -60.178,51.881 l -0.099,0.165 c 1.558,6.043 3.796,12.575 6.672,19.247 3.042,7.029 6.449,13.42 9.98,18.866 2.603,-12.268 6.814,-25.406 12.575,-38.66 C -24.602,31.216 -12.425,12.74 0,0"
             style="fill:#8ac647;fill-opacity:1;fill-rule:nonzero;stroke:none"
             id="path66" /></g></g></g><path
       d="m 201.429,99.695 h -27.652 v 125.76 h 27.652 z"
       style="fill:#231f20;fill-opacity:1;fill-rule:nonzero;stroke:none"
       id="path68" /><g
       id="g70"><g
         id="g72"
         clip-path="url(#clipPath76)"><g
           id="g78"
           transform="translate(306.4103,191.9065)"><path
             d="m 0,0 c -1.649,2.644 -3.697,4.957 -6.167,6.955 -2.461,1.997 -5.255,3.555 -8.363,4.666 -3.117,1.119 -6.375,1.674 -9.782,1.674 -6.224,0 -11.504,-1.201 -15.848,-3.605 -4.343,-2.412 -7.866,-5.637 -10.568,-9.69 -2.702,-4.053 -4.667,-8.662 -5.902,-13.826 -1.235,-5.173 -1.849,-10.51 -1.849,-16.031 0,-5.28 0.614,-10.419 1.849,-15.409 1.235,-4.998 3.2,-9.483 5.902,-13.478 2.702,-3.995 6.225,-7.195 10.568,-9.598 4.344,-2.412 9.624,-3.615 15.848,-3.615 8.456,0 15.062,2.586 19.819,7.75 4.758,5.173 7.66,11.978 8.721,20.433 h 26.773 c -0.705,-7.866 -2.528,-14.97 -5.462,-21.31 -2.935,-6.342 -6.814,-11.747 -11.622,-16.206 -4.815,-4.46 -10.452,-7.866 -16.909,-10.211 -6.466,-2.355 -13.569,-3.524 -21.32,-3.524 -9.623,0 -18.285,1.666 -25.977,5.016 -7.692,3.348 -14.182,7.957 -19.462,13.825 -5.289,5.877 -9.333,12.773 -12.152,20.698 -2.818,7.924 -4.227,16.47 -4.227,25.629 0,9.392 1.409,18.111 4.227,26.16 2.819,8.04 6.863,15.061 12.152,21.046 5.28,5.993 11.77,10.684 19.462,14.091 7.692,3.407 16.354,5.106 25.977,5.106 6.93,0 13.479,-0.995 19.645,-2.992 C 1.492,31.556 7.013,28.646 11.887,24.833 16.76,21.021 20.78,16.296 23.955,10.66 27.122,5.023 29.119,-1.442 29.94,-8.72 H 3.167 C 2.702,-5.545 1.641,-2.644 0,0"
             style="fill:#231f20;fill-opacity:1;fill-rule:nonzero;stroke:none"
             id="path80" /></g></g></g><g
       id="g82"
       transform="translate(383.9093,225.4607)"><path
         d="M 0,0 V -48.258 H 50.902 V 0 H 78.563 V -125.76 H 50.902 v 54.243 H 0 V -125.76 H -27.652 V 0 Z"
         style="fill:#231f20;fill-opacity:1;fill-rule:nonzero;stroke:none"
         id="path84" /></g><g
       id="g86"
       transform="translate(580.8322,225.4607)"><path
         d="m 0,0 v -23.25 h -66.402 v -26.948 h 60.94 V -71.69 h -60.94 v -30.819 H 1.409 V -125.76 H -94.055 V 0 Z"
         style="fill:#231f20;fill-opacity:1;fill-rule:nonzero;stroke:none"
         id="path88" /></g><g
       id="g90"><g
         id="g92"
         clip-path="url(#clipPath96)"><g
           id="g98"
           transform="translate(681.5842,191.9065)"><path
             d="m 0,0 c -1.649,2.644 -3.696,4.957 -6.167,6.955 -2.461,1.997 -5.255,3.555 -8.363,4.666 -3.116,1.119 -6.374,1.674 -9.782,1.674 -6.224,0 -11.504,-1.201 -15.847,-3.605 -4.344,-2.412 -7.866,-5.637 -10.569,-9.69 -2.703,-4.053 -4.667,-8.662 -5.902,-13.826 -1.234,-5.173 -1.849,-10.51 -1.849,-16.031 0,-5.28 0.615,-10.419 1.849,-15.409 1.235,-4.998 3.199,-9.483 5.902,-13.478 2.703,-3.995 6.225,-7.195 10.569,-9.598 4.343,-2.412 9.623,-3.615 15.847,-3.615 8.456,0 15.062,2.586 19.82,7.75 4.758,5.173 7.659,11.978 8.72,20.433 h 26.773 c -0.704,-7.866 -2.528,-14.97 -5.463,-21.31 -2.934,-6.342 -6.813,-11.747 -11.621,-16.206 -4.815,-4.46 -10.452,-7.866 -16.909,-10.211 -6.465,-2.355 -13.569,-3.524 -21.32,-3.524 -9.623,0 -18.285,1.666 -25.977,5.016 -7.691,3.348 -14.182,7.957 -19.462,13.825 -5.288,5.877 -9.333,12.773 -12.151,20.698 -2.819,7.924 -4.228,16.47 -4.228,25.629 0,9.392 1.409,18.111 4.228,26.16 2.818,8.04 6.863,15.061 12.151,21.046 5.28,5.993 11.771,10.684 19.462,14.091 7.692,3.407 16.354,5.106 25.977,5.106 6.93,0 13.479,-0.995 19.646,-2.992 C 1.492,31.556 7.013,28.646 11.887,24.833 16.761,21.021 20.78,16.296 23.955,10.66 27.122,5.023 29.119,-1.442 29.94,-8.72 H 3.167 C 2.702,-5.545 1.642,-2.644 0,0"
             style="fill:#231f20;fill-opacity:1;fill-rule:nonzero;stroke:none"
             id="path100" /></g></g></g><path
       d="m 173.778,47.019 h 2.279 v 23.889 h -2.279 z"
       style="fill:#231f20;fill-opacity:1;fill-rule:nonzero;stroke:none"
       id="path102" /><g
       id="g104"><g
         id="g106"
         clip-path="url(#clipPath110)"><g
           id="g112"
           transform="translate(183.2477,64.282)"><path
             d="m 0,0 v -4.053 h 0.066 c 0.539,1.409 1.368,2.495 2.495,3.249 1.127,0.763 2.47,1.103 4.028,1.036 V -1.873 C 5.636,-1.831 4.766,-1.956 3.979,-2.263 3.199,-2.561 2.528,-2.992 1.956,-3.547 1.393,-4.103 0.945,-4.766 0.638,-5.536 0.323,-6.308 0.166,-7.153 0.166,-8.064 v -9.202 H -1.94 V 0 Z"
             style="fill:#231f20;fill-opacity:1;fill-rule:nonzero;stroke:none"
             id="path114" /></g></g></g><path
       d="m 192.552,67.526 h 2.105 v 3.382 h -2.105 z m 0,-20.507 h 2.105 v 17.266 h -2.105 z"
       style="fill:#231f20;fill-opacity:1;fill-rule:nonzero;stroke:none"
       id="path116" /><g
       id="g118"><g
         id="g120"
         clip-path="url(#clipPath124)"><g
           id="g126"
           transform="translate(209.3161,60.9177)"><path
             d="m 0,0 c -0.249,0.481 -0.572,0.879 -0.986,1.186 -0.414,0.315 -0.887,0.546 -1.426,0.687 -0.53,0.149 -1.102,0.216 -1.708,0.216 -0.463,0 -0.936,-0.05 -1.417,-0.15 -0.481,-0.098 -0.92,-0.264 -1.326,-0.497 -0.398,-0.24 -0.721,-0.546 -0.97,-0.92 -0.24,-0.38 -0.365,-0.853 -0.365,-1.409 0,-0.464 0.116,-0.862 0.348,-1.185 0.241,-0.324 0.531,-0.597 0.888,-0.821 0.356,-0.223 0.746,-0.406 1.168,-0.555 0.431,-0.141 0.821,-0.265 1.177,-0.348 l 2.81,-0.639 c 0.605,-0.09 1.202,-0.248 1.79,-0.48 0.589,-0.24 1.12,-0.547 1.576,-0.92 0.455,-0.382 0.828,-0.853 1.119,-1.409 0.29,-0.556 0.43,-1.219 0.43,-1.973 0,-0.936 -0.207,-1.732 -0.629,-2.395 -0.423,-0.656 -0.97,-1.195 -1.625,-1.609 -0.655,-0.414 -1.401,-0.704 -2.23,-0.886 -0.82,-0.174 -1.633,-0.266 -2.437,-0.266 -2.031,0 -3.68,0.481 -4.94,1.442 -1.26,0.953 -1.981,2.495 -2.155,4.618 h 2.105 c 0.092,-1.426 0.605,-2.503 1.559,-3.233 0.945,-0.722 2.121,-1.086 3.531,-1.086 0.514,0 1.044,0.058 1.591,0.165 0.547,0.116 1.053,0.308 1.517,0.572 0.473,0.266 0.854,0.606 1.161,1.02 0.298,0.415 0.447,0.92 0.447,1.525 0,0.506 -0.107,0.937 -0.315,1.286 -0.215,0.347 -0.497,0.637 -0.854,0.87 -0.356,0.231 -0.762,0.43 -1.227,0.588 -0.455,0.149 -0.92,0.29 -1.383,0.398 l -2.711,0.604 c -0.697,0.175 -1.326,0.382 -1.907,0.615 -0.58,0.24 -1.085,0.53 -1.524,0.87 -0.432,0.348 -0.771,0.77 -1.02,1.276 -0.249,0.497 -0.365,1.119 -0.365,1.857 0,0.87 0.191,1.616 0.58,2.238 0.39,0.63 0.895,1.127 1.525,1.509 0.622,0.381 1.319,0.654 2.089,0.837 0.771,0.182 1.534,0.265 2.296,0.265 0.871,0 1.675,-0.108 2.42,-0.332 C -0.638,3.308 0.017,2.959 0.589,2.495 1.152,2.022 1.608,1.442 1.94,0.755 2.271,0.059 2.462,-0.754 2.512,-1.69 H 0.398 C 0.381,-1.044 0.249,-0.48 0,0"
             style="fill:#231f20;fill-opacity:1;fill-rule:nonzero;stroke:none"
             id="path128" /></g><g
           id="g130"
           transform="translate(218.2179,70.9079)"><path
             d="m 0,0 v -9.607 h 0.066 c 0.406,1.052 1.119,1.89 2.147,2.528 1.019,0.639 2.147,0.953 3.373,0.953 1.211,0 2.214,-0.157 3.034,-0.464 0.813,-0.315 1.467,-0.754 1.957,-1.326 0.488,-0.572 0.837,-1.269 1.036,-2.089 0.199,-0.829 0.298,-1.757 0.298,-2.776 V -23.897 H 9.806 v 10.776 c 0,0.737 -0.067,1.425 -0.199,2.063 -0.133,0.63 -0.373,1.186 -0.705,1.659 -0.331,0.463 -0.787,0.828 -1.351,1.101 -0.572,0.266 -1.285,0.399 -2.13,0.399 -0.846,0 -1.6,-0.15 -2.255,-0.448 C 2.503,-8.654 1.948,-9.06 1.492,-9.591 1.028,-10.112 0.671,-10.734 0.422,-11.464 0.157,-12.185 0.025,-12.973 0,-13.817 v -10.08 H -2.105 V 0 Z"
             style="fill:#231f20;fill-opacity:1;fill-rule:nonzero;stroke:none"
             id="path132" /></g><g
           id="g134"
           transform="translate(261.6378,66.1394)"><path
             d="m 0,0 c -0.456,0.721 -1.011,1.334 -1.674,1.823 -0.655,0.49 -1.385,0.863 -2.172,1.119 -0.796,0.257 -1.625,0.39 -2.495,0.39 -1.583,0 -2.943,-0.307 -4.087,-0.903 -1.135,-0.606 -2.064,-1.402 -2.793,-2.396 -0.721,-0.995 -1.26,-2.114 -1.6,-3.365 -0.348,-1.252 -0.522,-2.528 -0.522,-3.847 0,-1.293 0.174,-2.569 0.522,-3.829 0.34,-1.26 0.879,-2.388 1.6,-3.382 0.729,-0.995 1.658,-1.791 2.793,-2.395 1.144,-0.597 2.504,-0.903 4.087,-0.903 1.119,0 2.122,0.198 3.009,0.604 0.895,0.398 1.666,0.945 2.312,1.642 0.647,0.687 1.169,1.5 1.575,2.42 0.398,0.928 0.655,1.931 0.771,3.001 h 2.271 c -0.157,-1.476 -0.505,-2.802 -1.036,-3.988 -0.539,-1.177 -1.227,-2.179 -2.072,-3.009 -0.854,-0.829 -1.848,-1.459 -3.001,-1.906 -1.144,-0.447 -2.42,-0.672 -3.829,-0.672 -1.873,0 -3.523,0.34 -4.94,1.02 -1.409,0.68 -2.587,1.592 -3.531,2.727 -0.937,1.136 -1.633,2.453 -2.106,3.954 -0.464,1.492 -0.705,3.067 -0.705,4.716 0,1.65 0.241,3.225 0.705,4.717 0.473,1.492 1.169,2.818 2.106,3.971 0.944,1.143 2.122,2.063 3.531,2.743 1.417,0.68 3.067,1.019 4.94,1.019 1.135,0 2.246,-0.166 3.332,-0.505 C -1.932,4.435 -0.945,3.937 -0.066,3.282 0.812,2.619 1.55,1.815 2.139,0.854 2.735,-0.108 3.108,-1.21 3.266,-2.462 H 0.986 C 0.787,-1.542 0.456,-0.729 0,0"
             style="fill:#231f20;fill-opacity:1;fill-rule:nonzero;stroke:none"
             id="path136" /></g><g
           id="g138"
           transform="translate(270.5402,52.7195)"><path
             d="m 0,0 c 0.215,-0.812 0.555,-1.542 1.02,-2.188 0.472,-0.655 1.061,-1.186 1.773,-1.609 0.713,-0.422 1.575,-0.638 2.578,-0.638 1.542,0 2.744,0.398 3.614,1.203 0.87,0.803 1.475,1.88 1.807,3.215 h 2.105 C 12.45,-1.981 11.638,-3.498 10.444,-4.567 9.25,-5.637 7.56,-6.176 5.371,-6.176 c -1.359,0 -2.537,0.241 -3.531,0.722 -0.995,0.48 -1.798,1.136 -2.429,1.973 -0.621,0.836 -1.085,1.806 -1.384,2.909 -0.307,1.111 -0.456,2.271 -0.456,3.498 0,1.136 0.149,2.255 0.456,3.348 0.299,1.095 0.763,2.073 1.384,2.926 0.631,0.863 1.434,1.551 2.429,2.081 0.994,0.523 2.172,0.787 3.531,0.787 1.384,0 2.561,-0.281 3.548,-0.845 0.978,-0.555 1.782,-1.285 2.395,-2.188 0.614,-0.904 1.053,-1.94 1.318,-3.108 0.265,-1.178 0.382,-2.363 0.332,-3.565 H -0.315 C -0.315,1.6 -0.216,0.812 0,0 M 10.444,6.44 C 10.187,7.178 9.822,7.833 9.35,8.396 8.886,8.969 8.313,9.425 7.65,9.772 6.979,10.121 6.217,10.286 5.371,10.286 4.501,10.286 3.73,10.121 3.059,9.772 2.396,9.425 1.823,8.969 1.351,8.396 0.887,7.833 0.514,7.17 0.232,6.424 -0.042,5.678 -0.232,4.915 -0.315,4.136 H 10.858 C 10.833,4.932 10.701,5.703 10.444,6.44"
             style="fill:#231f20;fill-opacity:1;fill-rule:nonzero;stroke:none"
             id="path140" /></g><g
           id="g142"
           transform="translate(289.0959,64.282)"><path
             d="m 0,0 v -2.976 h 0.066 c 0.406,1.045 1.119,1.891 2.147,2.521 1.019,0.638 2.147,0.961 3.373,0.961 1.211,0 2.214,-0.166 3.034,-0.473 0.813,-0.314 1.467,-0.754 1.957,-1.326 0.488,-0.563 0.837,-1.26 1.036,-2.089 0.199,-0.82 0.298,-1.749 0.298,-2.776 V -17.266 H 9.806 V -6.49 c 0,0.729 -0.067,1.418 -0.199,2.055 -0.133,0.639 -0.373,1.186 -0.705,1.659 -0.331,0.463 -0.787,0.837 -1.351,1.102 -0.572,0.266 -1.285,0.398 -2.13,0.398 -0.846,0 -1.6,-0.149 -2.255,-0.448 C 2.503,-2.022 1.948,-2.437 1.492,-2.959 1.028,-3.489 0.671,-4.111 0.422,-4.832 0.166,-5.562 0.025,-6.349 0,-7.194 V -17.266 H -2.105 V 0 Z"
             style="fill:#231f20;fill-opacity:1;fill-rule:nonzero;stroke:none"
             id="path144" /></g><g
           id="g146"
           transform="translate(312.5221,64.282)"><path
             d="m 0,0 v -1.773 h -3.515 v -11.646 c 0,-0.688 0.092,-1.235 0.282,-1.625 0.191,-0.39 0.663,-0.605 1.426,-0.655 0.605,0 1.202,0.042 1.807,0.099 v -1.765 c -0.315,0 -0.622,-0.017 -0.937,-0.033 -0.315,-0.025 -0.622,-0.041 -0.937,-0.041 -1.409,0 -2.387,0.273 -2.942,0.82 -0.564,0.547 -0.829,1.558 -0.804,3.034 V -1.773 H -8.637 V 0 h 3.017 v 5.189 h 2.105 l 0,-5.189 z"
             style="fill:#231f20;fill-opacity:1;fill-rule:nonzero;stroke:none"
             id="path148" /></g><g
           id="g150"
           transform="translate(318.1764,64.282)"><path
             d="m 0,0 v -4.053 h 0.066 c 0.539,1.409 1.368,2.495 2.496,3.249 1.127,0.763 2.47,1.103 4.028,1.036 V -1.873 C 5.637,-1.831 4.766,-1.956 3.979,-2.263 3.2,-2.561 2.528,-2.992 1.957,-3.547 1.393,-4.103 0.945,-4.766 0.638,-5.536 0.323,-6.308 0.166,-7.153 0.166,-8.064 v -9.202 H -1.939 V 0 Z"
             style="fill:#231f20;fill-opacity:1;fill-rule:nonzero;stroke:none"
             id="path152" /></g><g
           id="g154"
           transform="translate(328.401,52.7195)"><path
             d="m 0,0 c 0.215,-0.812 0.555,-1.542 1.02,-2.188 0.472,-0.655 1.061,-1.186 1.773,-1.609 0.713,-0.422 1.575,-0.638 2.578,-0.638 1.542,0 2.744,0.398 3.614,1.203 0.87,0.803 1.475,1.88 1.807,3.215 h 2.105 C 12.458,-1.981 11.629,-3.498 10.444,-4.567 9.25,-5.637 7.56,-6.176 5.371,-6.176 c -1.359,0 -2.536,0.241 -3.531,0.722 -0.995,0.48 -1.798,1.136 -2.428,1.973 -0.622,0.836 -1.086,1.806 -1.385,2.909 -0.306,1.111 -0.456,2.271 -0.456,3.498 0,1.136 0.15,2.255 0.456,3.348 0.299,1.095 0.763,2.073 1.385,2.926 0.63,0.863 1.433,1.551 2.428,2.081 0.995,0.523 2.172,0.787 3.531,0.787 1.384,0 2.562,-0.281 3.548,-0.845 0.978,-0.555 1.782,-1.285 2.387,-2.188 0.622,-0.904 1.061,-1.94 1.326,-3.108 0.265,-1.178 0.382,-2.363 0.332,-3.565 H -0.315 C -0.315,1.6 -0.215,0.812 0,0 M 10.444,6.44 C 10.187,7.178 9.822,7.833 9.35,8.396 8.886,8.969 8.314,9.425 7.651,9.772 6.979,10.121 6.217,10.286 5.371,10.286 4.501,10.286 3.73,10.121 3.059,9.772 2.396,9.425 1.824,8.969 1.351,8.396 0.887,7.833 0.514,7.17 0.232,6.424 -0.042,5.678 -0.232,4.915 -0.315,4.136 H 10.858 C 10.833,4.932 10.701,5.703 10.444,6.44"
             style="fill:#231f20;fill-opacity:1;fill-rule:nonzero;stroke:none"
             id="path156" /></g><g
           id="g158"
           transform="translate(358.1003,62.5076)"><path
             d="M 0,0 V -15.492 H -2.105 V 0 h -2.943 v 1.774 h 2.943 v 1.575 c 0,0.729 0.049,1.418 0.166,2.039 0.107,0.622 0.323,1.161 0.638,1.608 0.306,0.44 0.738,0.787 1.284,1.036 0.548,0.249 1.244,0.364 2.089,0.364 0.315,0 0.605,-0.007 0.87,-0.033 C 3.216,8.347 3.515,8.306 3.846,8.265 V 6.457 C 3.556,6.507 3.291,6.54 3.05,6.573 2.802,6.606 2.553,6.623 2.313,6.623 1.732,6.623 1.285,6.54 0.97,6.357 0.655,6.184 0.431,5.943 0.282,5.637 0.141,5.338 0.058,4.99 0.033,4.584 0.008,4.187 0,3.747 0,3.282 V 1.774 H 3.415 V 0 Z"
             style="fill:#231f20;fill-opacity:1;fill-rule:nonzero;stroke:none"
             id="path160" /></g><g
           id="g162"
           transform="translate(374.9831,64.0466)"><path
             d="m 0,0 c 1.011,-0.488 1.865,-1.151 2.562,-1.973 0.688,-0.828 1.209,-1.79 1.566,-2.892 0.356,-1.111 0.539,-2.288 0.539,-3.531 0,-1.251 -0.183,-2.429 -0.539,-3.532 C 3.771,-13.03 3.25,-14 2.562,-14.828 1.865,-15.649 1.011,-16.304 0,-16.785 c -1.02,-0.481 -2.18,-0.713 -3.498,-0.713 -1.318,0 -2.486,0.232 -3.498,0.713 -1.011,0.481 -1.865,1.136 -2.561,1.957 -0.688,0.828 -1.21,1.798 -1.575,2.9 -0.356,1.103 -0.531,2.281 -0.531,3.532 0,1.243 0.175,2.42 0.531,3.531 0.365,1.102 0.887,2.064 1.575,2.892 0.696,0.822 1.55,1.485 2.561,1.973 1.012,0.489 2.18,0.738 3.498,0.738 C -2.18,0.738 -1.02,0.489 0,0 m -6.142,-1.674 c -0.754,-0.423 -1.393,-0.978 -1.89,-1.675 -0.506,-0.687 -0.879,-1.475 -1.135,-2.353 -0.257,-0.887 -0.39,-1.782 -0.39,-2.694 0,-0.92 0.133,-1.816 0.39,-2.703 0.256,-0.879 0.629,-1.666 1.135,-2.353 0.497,-0.689 1.136,-1.252 1.89,-1.675 0.763,-0.423 1.641,-0.63 2.644,-0.63 1.003,0 1.882,0.207 2.644,0.63 0.755,0.423 1.385,0.986 1.89,1.675 0.506,0.687 0.879,1.474 1.136,2.353 0.257,0.887 0.39,1.783 0.39,2.703 0,0.912 -0.133,1.807 -0.39,2.694 -0.257,0.878 -0.63,1.666 -1.136,2.353 -0.505,0.697 -1.135,1.252 -1.89,1.675 -0.762,0.423 -1.641,0.638 -2.644,0.638 -1.003,0 -1.881,-0.215 -2.644,-0.638"
             style="fill:#231f20;fill-opacity:1;fill-rule:nonzero;stroke:none"
             id="path164" /></g><g
           id="g166"
           transform="translate(385.4074,64.282)"><path
             d="m 0,0 v -4.053 h 0.066 c 0.539,1.409 1.368,2.495 2.496,3.249 1.126,0.763 2.469,1.103 4.028,1.036 V -1.873 C 5.637,-1.831 4.767,-1.956 3.979,-2.263 3.199,-2.561 2.528,-2.992 1.956,-3.547 1.393,-4.103 0.945,-4.766 0.639,-5.536 0.323,-6.308 0.166,-7.153 0.166,-8.064 v -9.202 H -1.939 V 0 Z"
             style="fill:#231f20;fill-opacity:1;fill-rule:nonzero;stroke:none"
             id="path168" /></g></g></g><g
       id="g170"
       transform="translate(407.3283,70.9079)"><path
         d="M 0,0 V -10.378 H 14.19 V 0 h 2.272 V -23.897 H 14.19 v 11.58 H 0 v -11.58 H -2.279 V 0 Z"
         style="fill:#231f20;fill-opacity:1;fill-rule:nonzero;stroke:none"
         id="path172" /></g><path
       d="m 428.911,67.526 h 2.113 v 3.382 h -2.113 z m 0,-20.507 h 2.113 v 17.266 h -2.113 z"
       style="fill:#231f20;fill-opacity:1;fill-rule:nonzero;stroke:none"
       id="path174" /><g
       id="g176"><g
         id="g178"
         clip-path="url(#clipPath182)"><g
           id="g184"
           transform="translate(449.9123,44.9724)"><path
             d="m 0,0 c -0.282,-1.027 -0.722,-1.898 -1.318,-2.611 -0.606,-0.713 -1.393,-1.26 -2.363,-1.641 -0.969,-0.382 -2.155,-0.563 -3.564,-0.563 -0.87,0 -1.716,0.099 -2.545,0.297 -0.82,0.2 -1.566,0.514 -2.221,0.937 -0.663,0.423 -1.21,0.962 -1.641,1.625 -0.44,0.655 -0.688,1.442 -0.754,2.354 h 2.105 c 0.115,-0.647 0.331,-1.185 0.655,-1.617 0.323,-0.438 0.712,-0.787 1.168,-1.06 0.457,-0.266 0.97,-0.456 1.526,-0.58 0.555,-0.125 1.127,-0.183 1.707,-0.183 1.965,0 3.382,0.556 4.253,1.666 0.87,1.119 1.301,2.728 1.301,4.824 V 5.786 H -1.758 C -2.247,4.717 -2.968,3.854 -3.913,3.208 -4.866,2.562 -5.977,2.238 -7.245,2.238 c -1.384,0 -2.569,0.232 -3.548,0.688 -0.986,0.456 -1.79,1.095 -2.428,1.89 -0.638,0.804 -1.094,1.749 -1.384,2.827 -0.291,1.086 -0.44,2.238 -0.44,3.464 0,1.186 0.174,2.304 0.523,3.366 0.339,1.06 0.845,1.989 1.508,2.776 0.655,0.796 1.467,1.418 2.437,1.874 0.97,0.455 2.081,0.688 3.332,0.688 0.646,0 1.252,-0.091 1.824,-0.265 0.571,-0.183 1.085,-0.432 1.558,-0.755 0.465,-0.323 0.887,-0.696 1.252,-1.119 0.373,-0.431 0.655,-0.87 0.853,-1.343 h 0.067 v 2.984 H 0.414 V 3.448 C 0.414,2.172 0.281,1.028 0,0 m -4.833,4.601 c 0.688,0.389 1.269,0.903 1.741,1.542 0.464,0.629 0.812,1.367 1.053,2.187 0.231,0.829 0.348,1.675 0.348,2.545 0,0.846 -0.1,1.699 -0.298,2.545 -0.199,0.846 -0.532,1.616 -0.971,2.305 -0.447,0.696 -1.019,1.251 -1.724,1.673 -0.704,0.423 -1.558,0.639 -2.561,0.639 -1.003,0 -1.865,-0.207 -2.577,-0.622 -0.713,-0.406 -1.302,-0.953 -1.775,-1.616 -0.472,-0.672 -0.812,-1.434 -1.019,-2.296 -0.216,-0.862 -0.315,-1.732 -0.315,-2.628 0,-0.87 0.108,-1.716 0.331,-2.545 0.224,-0.82 0.573,-1.558 1.037,-2.187 0.463,-0.639 1.061,-1.153 1.773,-1.542 0.713,-0.39 1.567,-0.58 2.545,-0.58 0.912,0 1.716,0.19 2.412,0.58"
             style="fill:#231f20;fill-opacity:1;fill-rule:nonzero;stroke:none"
             id="path186" /></g><g
           id="g188"
           transform="translate(457.088,70.9079)"><path
             d="m 0,0 v -9.607 h 0.066 c 0.406,1.052 1.119,1.89 2.138,2.528 1.028,0.639 2.155,0.953 3.382,0.953 1.211,0 2.214,-0.157 3.034,-0.464 0.813,-0.315 1.467,-0.754 1.956,-1.326 0.489,-0.572 0.837,-1.269 1.036,-2.089 0.2,-0.829 0.299,-1.757 0.299,-2.776 V -23.897 H 9.806 v 10.776 c 0,0.737 -0.067,1.425 -0.2,2.063 -0.132,0.63 -0.373,1.186 -0.704,1.659 -0.332,0.463 -0.788,0.828 -1.359,1.101 -0.564,0.266 -1.277,0.399 -2.122,0.399 -0.846,0 -1.6,-0.15 -2.255,-0.448 C 2.503,-8.654 1.947,-9.06 1.491,-9.591 1.027,-10.112 0.671,-10.734 0.422,-11.464 0.165,-12.185 0.024,-12.973 0,-13.817 v -10.08 H -2.105 V 0 Z"
             style="fill:#231f20;fill-opacity:1;fill-rule:nonzero;stroke:none"
             id="path190" /></g></g></g><path
       d="m 473.654,55.25 h 8.364 v 1.939 h -8.364 z"
       style="fill:#231f20;fill-opacity:1;fill-rule:nonzero;stroke:none"
       id="path192" /><g
       id="g194"><g
         id="g196"
         clip-path="url(#clipPath200)"><g
           id="g202"
           transform="translate(488.2619,52.7195)"><path
             d="m 0,0 c 0.215,-0.812 0.555,-1.542 1.02,-2.188 0.471,-0.655 1.06,-1.186 1.773,-1.609 0.713,-0.422 1.575,-0.638 2.578,-0.638 1.542,0 2.743,0.398 3.614,1.203 0.87,0.803 1.475,1.88 1.807,3.215 h 2.105 C 12.458,-1.981 11.638,-3.498 10.443,-4.567 9.25,-5.637 7.56,-6.176 5.371,-6.176 c -1.359,0 -2.536,0.241 -3.531,0.722 -0.995,0.48 -1.799,1.136 -2.429,1.973 -0.622,0.836 -1.086,1.806 -1.384,2.909 -0.298,1.111 -0.456,2.271 -0.456,3.498 0,1.136 0.158,2.255 0.456,3.348 0.298,1.095 0.762,2.073 1.384,2.926 0.63,0.863 1.434,1.551 2.429,2.081 0.995,0.523 2.172,0.787 3.531,0.787 1.384,0 2.569,-0.281 3.548,-0.845 0.986,-0.555 1.781,-1.285 2.395,-2.188 0.614,-0.904 1.053,-1.94 1.318,-3.108 0.265,-1.178 0.382,-2.363 0.34,-3.565 H -0.315 C -0.315,1.6 -0.216,0.812 0,0 M 10.443,6.44 C 10.187,7.178 9.822,7.833 9.357,8.396 8.886,8.969 8.313,9.425 7.65,9.772 6.979,10.121 6.217,10.286 5.371,10.286 4.501,10.286 3.729,10.121 3.059,9.772 2.396,9.425 1.823,8.969 1.351,8.396 0.887,7.833 0.514,7.17 0.231,6.424 -0.042,5.678 -0.232,4.915 -0.315,4.136 H 10.858 C 10.833,4.932 10.7,5.703 10.443,6.44"
             style="fill:#231f20;fill-opacity:1;fill-rule:nonzero;stroke:none"
             id="path204" /></g><g
           id="g206"
           transform="translate(506.8175,64.282)"><path
             d="m 0,0 v -2.976 h 0.066 c 0.407,1.045 1.12,1.891 2.139,2.521 1.028,0.638 2.155,0.961 3.382,0.961 1.211,0 2.214,-0.166 3.034,-0.473 0.813,-0.314 1.467,-0.754 1.956,-1.326 0.489,-0.563 0.837,-1.26 1.036,-2.089 0.2,-0.82 0.299,-1.749 0.299,-2.776 V -17.266 H 9.807 V -6.49 c 0,0.729 -0.067,1.418 -0.2,2.055 -0.132,0.639 -0.373,1.186 -0.705,1.659 -0.331,0.463 -0.787,0.837 -1.359,1.102 -0.563,0.266 -1.276,0.398 -2.121,0.398 -0.846,0 -1.601,-0.149 -2.255,-0.448 C 2.504,-2.022 1.948,-2.437 1.492,-2.959 1.028,-3.489 0.672,-4.111 0.423,-4.832 0.158,-5.562 0.025,-6.349 0,-7.194 V -17.266 H -2.104 V 0 Z"
             style="fill:#231f20;fill-opacity:1;fill-rule:nonzero;stroke:none"
             id="path208" /></g><g
           id="g210"
           transform="translate(536.634,47.0144)"><path
             d="M 0,0 V 3.282 H -0.066 C -0.29,2.719 -0.621,2.204 -1.053,1.74 -1.492,1.268 -1.98,0.878 -2.545,0.555 -3.1,0.231 -3.696,-0.025 -4.335,-0.199 c -0.639,-0.183 -1.269,-0.266 -1.89,-0.266 -1.318,0 -2.462,0.233 -3.431,0.713 -0.97,0.481 -1.775,1.145 -2.421,1.973 -0.654,0.838 -1.127,1.815 -1.443,2.918 -0.314,1.102 -0.463,2.271 -0.463,3.498 0,1.218 0.149,2.387 0.463,3.489 0.316,1.111 0.789,2.081 1.443,2.918 0.646,0.837 1.451,1.5 2.421,1.989 0.969,0.489 2.113,0.738 3.431,0.738 0.647,0 1.277,-0.083 1.89,-0.232 0.613,-0.157 1.193,-0.397 1.725,-0.721 0.538,-0.323 1.01,-0.721 1.424,-1.194 0.415,-0.464 0.73,-1.011 0.955,-1.633 h 0.065 v 9.905 H 1.939 L 1.939,0 Z m -11.563,5.976 c 0.215,-0.887 0.547,-1.674 1.003,-2.363 0.456,-0.687 1.044,-1.251 1.757,-1.69 0.713,-0.432 1.575,-0.655 2.578,-0.655 1.12,0 2.056,0.223 2.827,0.655 0.771,0.439 1.392,1.003 1.873,1.69 0.481,0.689 0.829,1.476 1.036,2.363 0.216,0.878 0.323,1.765 0.323,2.661 0,0.886 -0.107,1.773 -0.323,2.652 -0.207,0.887 -0.555,1.675 -1.036,2.362 -0.481,0.689 -1.102,1.26 -1.873,1.692 -0.771,0.439 -1.707,0.654 -2.827,0.654 -1.003,0 -1.865,-0.215 -2.578,-0.654 -0.713,-0.432 -1.301,-1.003 -1.757,-1.692 -0.456,-0.687 -0.788,-1.475 -1.003,-2.362 -0.208,-0.879 -0.315,-1.766 -0.315,-2.652 0,-0.896 0.107,-1.783 0.315,-2.661"
             style="fill:#231f20;fill-opacity:1;fill-rule:nonzero;stroke:none"
             id="path212" /></g><g
           id="g214"
           transform="translate(570.1154,66.1394)"><path
             d="m 0,0 c -0.456,0.721 -1.011,1.334 -1.674,1.823 -0.655,0.49 -1.385,0.863 -2.172,1.119 -0.796,0.257 -1.625,0.39 -2.495,0.39 -1.583,0 -2.942,-0.307 -4.086,-0.903 -1.136,-0.606 -2.064,-1.402 -2.794,-2.396 -0.72,-0.995 -1.259,-2.114 -1.608,-3.365 -0.34,-1.252 -0.514,-2.528 -0.514,-3.847 0,-1.293 0.174,-2.569 0.514,-3.829 0.349,-1.26 0.888,-2.388 1.608,-3.382 0.73,-0.995 1.658,-1.791 2.794,-2.395 1.144,-0.597 2.503,-0.903 4.086,-0.903 1.111,0 2.122,0.198 3.009,0.604 0.895,0.398 1.666,0.945 2.312,1.642 0.647,0.687 1.169,1.5 1.576,2.42 0.397,0.928 0.655,1.931 0.762,3.001 h 2.28 c -0.158,-1.476 -0.506,-2.802 -1.036,-3.988 -0.54,-1.177 -1.227,-2.179 -2.073,-3.009 -0.853,-0.829 -1.848,-1.459 -3.001,-1.906 -1.143,-0.447 -2.42,-0.672 -3.829,-0.672 -1.873,0 -3.522,0.34 -4.931,1.02 -1.418,0.68 -2.595,1.592 -3.541,2.727 -0.927,1.136 -1.632,2.453 -2.104,3.954 -0.465,1.492 -0.705,3.067 -0.705,4.716 0,1.65 0.24,3.225 0.705,4.717 0.472,1.492 1.177,2.818 2.104,3.971 0.946,1.143 2.123,2.063 3.541,2.743 1.409,0.68 3.058,1.019 4.931,1.019 1.136,0 2.246,-0.166 3.332,-0.505 C -1.931,4.435 -0.944,3.937 -0.066,3.282 0.812,2.619 1.55,1.815 2.147,0.854 2.735,-0.108 3.108,-1.21 3.266,-2.462 H 0.986 C 0.788,-1.542 0.456,-0.729 0,0"
             style="fill:#231f20;fill-opacity:1;fill-rule:nonzero;stroke:none"
             id="path216" /></g><g
           id="g218"
           transform="translate(588.2551,64.0466)"><path
             d="m 0,0 c 1.012,-0.488 1.865,-1.151 2.562,-1.973 0.687,-0.828 1.209,-1.79 1.566,-2.892 0.356,-1.111 0.539,-2.288 0.539,-3.531 0,-1.251 -0.183,-2.429 -0.539,-3.532 C 3.771,-13.03 3.249,-14 2.562,-14.828 1.865,-15.649 1.012,-16.304 0,-16.785 c -1.02,-0.481 -2.18,-0.713 -3.498,-0.713 -1.317,0 -2.486,0.232 -3.498,0.713 -1.011,0.481 -1.864,1.136 -2.561,1.957 -0.688,0.828 -1.211,1.798 -1.575,2.9 -0.356,1.103 -0.53,2.281 -0.53,3.532 0,1.243 0.174,2.42 0.53,3.531 0.364,1.102 0.887,2.064 1.575,2.892 0.697,0.822 1.55,1.485 2.561,1.973 1.012,0.489 2.181,0.738 3.498,0.738 C -2.18,0.738 -1.02,0.489 0,0 m -6.142,-1.674 c -0.754,-0.423 -1.392,-0.978 -1.89,-1.675 -0.505,-0.687 -0.878,-1.475 -1.135,-2.353 -0.258,-0.887 -0.39,-1.782 -0.39,-2.694 0,-0.92 0.132,-1.816 0.39,-2.703 0.257,-0.879 0.63,-1.666 1.135,-2.353 0.498,-0.689 1.136,-1.252 1.89,-1.675 0.763,-0.423 1.641,-0.63 2.644,-0.63 1.003,0 1.882,0.207 2.644,0.63 0.754,0.423 1.384,0.986 1.89,1.675 0.506,0.687 0.879,1.474 1.136,2.353 0.257,0.887 0.39,1.783 0.39,2.703 0,0.912 -0.133,1.807 -0.39,2.694 -0.257,0.878 -0.63,1.666 -1.136,2.353 -0.506,0.697 -1.136,1.252 -1.89,1.675 -0.762,0.423 -1.641,0.638 -2.644,0.638 -1.003,0 -1.881,-0.215 -2.644,-0.638"
             style="fill:#231f20;fill-opacity:1;fill-rule:nonzero;stroke:none"
             id="path220" /></g><g
           id="g222"
           transform="translate(598.6789,64.282)"><path
             d="m 0,0 v -2.909 h 0.099 c 0.555,1.069 1.294,1.906 2.197,2.504 0.894,0.604 2.056,0.911 3.465,0.911 1.135,0 2.163,-0.281 3.092,-0.846 0.927,-0.555 1.541,-1.4 1.856,-2.536 0.514,1.136 1.269,1.981 2.271,2.536 1.011,0.565 2.081,0.846 3.216,0.846 3.813,0 5.72,-2.023 5.72,-6.059 v -11.713 h -2.105 v 11.605 c 0,1.434 -0.299,2.52 -0.905,3.265 -0.596,0.747 -1.657,1.12 -3.174,1.12 -0.92,0 -1.674,-0.165 -2.28,-0.514 -0.604,-0.348 -1.085,-0.813 -1.441,-1.393 -0.357,-0.58 -0.606,-1.243 -0.746,-1.989 -0.15,-0.746 -0.225,-1.525 -0.225,-2.321 v -9.773 H 8.936 v 11.713 c 0,0.58 -0.067,1.127 -0.183,1.657 -0.125,0.523 -0.323,0.979 -0.606,1.369 -0.281,0.389 -0.654,0.696 -1.119,0.92 -0.471,0.223 -1.036,0.331 -1.707,0.331 -0.895,0 -1.666,-0.158 -2.329,-0.481 C 2.337,-2.08 1.798,-2.527 1.393,-3.092 0.978,-3.663 0.671,-4.335 0.464,-5.105 0.265,-5.876 0.165,-6.714 0.165,-7.634 v -9.632 H -1.94 V 0 Z"
             style="fill:#231f20;fill-opacity:1;fill-rule:nonzero;stroke:none"
             id="path224" /></g><g
           id="g226"
           transform="translate(627.2248,64.282)"><path
             d="m 0,0 v -3.282 h 0.066 c 0.49,1.21 1.286,2.138 2.396,2.794 1.102,0.663 2.353,0.994 3.763,0.994 1.318,0 2.462,-0.248 3.431,-0.737 0.971,-0.498 1.775,-1.162 2.429,-1.998 0.646,-0.837 1.119,-1.807 1.435,-2.91 0.314,-1.102 0.472,-2.271 0.472,-3.498 0,-1.226 -0.158,-2.386 -0.472,-3.498 -0.316,-1.102 -0.789,-2.072 -1.435,-2.909 -0.654,-0.837 -1.458,-1.492 -2.429,-1.973 -0.969,-0.48 -2.113,-0.721 -3.431,-0.721 -0.63,0 -1.251,0.083 -1.873,0.232 -0.63,0.157 -1.203,0.39 -1.741,0.705 -0.539,0.315 -1.011,0.704 -1.425,1.168 -0.415,0.473 -0.73,1.02 -0.954,1.642 H 0.166 v -9.632 h -2.105 l 0,23.623 z m 11.563,-5.976 c -0.215,0.878 -0.547,1.666 -1.002,2.363 -0.457,0.687 -1.045,1.251 -1.758,1.69 -0.713,0.432 -1.575,0.647 -2.578,0.647 -1.161,0 -2.13,-0.199 -2.91,-0.597 C 2.528,-2.279 1.906,-2.81 1.442,-3.48 0.97,-4.152 0.639,-4.932 0.447,-5.827 0.266,-6.714 0.166,-7.65 0.166,-8.637 c 0,-0.886 0.107,-1.773 0.323,-2.661 0.207,-0.878 0.556,-1.666 1.036,-2.353 0.473,-0.697 1.103,-1.26 1.873,-1.692 0.771,-0.438 1.708,-0.654 2.827,-0.654 1.003,0 1.865,0.216 2.578,0.654 0.713,0.432 1.301,0.995 1.758,1.692 0.455,0.687 0.787,1.475 1.002,2.353 0.208,0.888 0.315,1.775 0.315,2.661 0,0.896 -0.107,1.783 -0.315,2.661"
             style="fill:#231f20;fill-opacity:1;fill-rule:nonzero;stroke:none"
             id="path228" /></g><g
           id="g230"
           transform="translate(657.2082,47.0144)"><path
             d="M 0,0 V 3.108 H -0.066 C -0.621,1.956 -1.434,1.069 -2.495,0.447 c -1.061,-0.613 -2.237,-0.912 -3.53,-0.912 -1.086,0 -2.023,0.15 -2.794,0.448 -0.771,0.298 -1.393,0.73 -1.873,1.285 -0.481,0.563 -0.829,1.243 -1.053,2.047 -0.224,0.804 -0.332,1.716 -0.332,2.744 v 11.207 h 2.105 V 6.025 c 0.042,-1.566 0.407,-2.743 1.086,-3.546 0.68,-0.805 1.857,-1.211 3.532,-1.211 0.912,0 1.699,0.199 2.345,0.588 0.647,0.39 1.177,0.913 1.6,1.559 0.431,0.647 0.738,1.384 0.945,2.221 0.199,0.838 0.298,1.691 0.298,2.561 v 9.069 H 1.939 L 1.939,0 Z"
             style="fill:#231f20;fill-opacity:1;fill-rule:nonzero;stroke:none"
             id="path232" /></g><g
           id="g234"
           transform="translate(670.6603,64.282)"><path
             d="m 0,0 v -1.773 h -3.515 v -11.646 c 0,-0.688 0.1,-1.235 0.283,-1.625 0.19,-0.39 0.663,-0.605 1.425,-0.655 0.605,0 1.203,0.042 1.807,0.099 v -1.765 c -0.314,0 -0.621,-0.017 -0.937,-0.033 -0.314,-0.025 -0.622,-0.041 -0.936,-0.041 -1.409,0 -2.388,0.273 -2.942,0.82 -0.556,0.547 -0.83,1.558 -0.805,3.034 V -1.773 H -8.629 V 0 h 3.009 v 5.189 h 2.105 l 0,-5.189 z"
             style="fill:#231f20;fill-opacity:1;fill-rule:nonzero;stroke:none"
             id="path236" /></g></g></g><path
       d="m 674.404,67.526 h 2.114 v 3.382 h -2.114 z m 0,-20.507 h 2.114 v 17.266 h -2.114 z"
       style="fill:#231f20;fill-opacity:1;fill-rule:nonzero;stroke:none"
       id="path238" /><g
       id="g240"><g
         id="g242"
         clip-path="url(#clipPath246)"><g
           id="g248"
           transform="translate(683.3098,64.282)"><path
             d="m 0,0 v -2.976 h 0.066 c 0.407,1.045 1.119,1.891 2.138,2.521 1.028,0.638 2.155,0.961 3.383,0.961 1.21,0 2.213,-0.166 3.033,-0.473 0.813,-0.314 1.467,-0.754 1.956,-1.326 0.489,-0.563 0.838,-1.26 1.036,-2.089 0.2,-0.82 0.299,-1.749 0.299,-2.776 V -17.266 H 9.806 V -6.49 c 0,0.729 -0.067,1.418 -0.2,2.055 -0.132,0.639 -0.373,1.186 -0.704,1.659 -0.332,0.463 -0.788,0.837 -1.359,1.102 -0.564,0.266 -1.276,0.398 -2.122,0.398 -0.846,0 -1.6,-0.149 -2.255,-0.448 C 2.503,-2.022 1.947,-2.437 1.491,-2.959 1.027,-3.489 0.671,-4.111 0.423,-4.832 0.165,-5.562 0.024,-6.349 0,-7.194 V -17.266 H -2.105 V 0 Z"
             style="fill:#231f20;fill-opacity:1;fill-rule:nonzero;stroke:none"
             id="path250" /></g><g
           id="g252"
           transform="translate(714.049,44.9724)"><path
             d="m 0,0 c -0.282,-1.027 -0.721,-1.898 -1.318,-2.611 -0.605,-0.713 -1.393,-1.26 -2.363,-1.641 -0.969,-0.382 -2.163,-0.563 -3.563,-0.563 -0.871,0 -1.716,0.099 -2.545,0.297 -0.821,0.2 -1.566,0.514 -2.222,0.937 -0.663,0.423 -1.21,0.962 -1.641,1.625 -0.439,0.655 -0.688,1.442 -0.754,2.354 h 2.105 c 0.116,-0.647 0.332,-1.185 0.655,-1.617 0.324,-0.438 0.713,-0.787 1.168,-1.06 0.457,-0.266 0.97,-0.456 1.526,-0.58 0.556,-0.125 1.127,-0.183 1.708,-0.183 1.964,0 3.382,0.556 4.252,1.666 0.87,1.119 1.301,2.728 1.301,4.824 V 5.786 H -1.757 C -2.246,4.717 -2.968,3.854 -3.912,3.208 -4.865,2.562 -5.977,2.238 -7.244,2.238 c -1.385,0 -2.57,0.232 -3.548,0.688 -0.986,0.456 -1.791,1.095 -2.429,1.89 -0.638,0.804 -1.094,1.749 -1.384,2.827 -0.291,1.086 -0.439,2.238 -0.439,3.464 0,1.186 0.174,2.304 0.522,3.366 0.339,1.06 0.845,1.989 1.508,2.776 0.656,0.796 1.467,1.418 2.437,1.874 0.971,0.455 2.081,0.688 3.333,0.688 0.646,0 1.251,-0.091 1.823,-0.265 0.572,-0.183 1.086,-0.432 1.559,-0.755 0.464,-0.323 0.886,-0.696 1.251,-1.119 0.365,-0.431 0.655,-0.87 0.854,-1.343 h 0.066 v 2.984 H 0.414 V 3.448 C 0.414,2.172 0.282,1.028 0,0 m -4.832,4.601 c 0.687,0.389 1.268,0.903 1.74,1.542 0.464,0.629 0.813,1.367 1.053,2.187 0.232,0.829 0.348,1.675 0.348,2.545 0,0.846 -0.099,1.699 -0.298,2.545 -0.199,0.846 -0.531,1.616 -0.97,2.305 -0.448,0.696 -1.02,1.251 -1.725,1.673 -0.704,0.423 -1.557,0.639 -2.56,0.639 -1.003,0 -1.865,-0.207 -2.578,-0.622 -0.713,-0.406 -1.302,-0.953 -1.775,-1.616 -0.471,-0.672 -0.811,-1.434 -1.019,-2.296 -0.215,-0.862 -0.323,-1.732 -0.323,-2.628 0,-0.87 0.116,-1.716 0.339,-2.545 0.225,-0.82 0.573,-1.558 1.037,-2.187 0.464,-0.639 1.061,-1.153 1.774,-1.542 0.713,-0.39 1.566,-0.58 2.545,-0.58 0.911,0 1.716,0.19 2.412,0.58"
             style="fill:#231f20;fill-opacity:1;fill-rule:nonzero;stroke:none"
             id="path254" /></g><g
           id="g256"
           transform="translate(128.048,225.4709)"><path
             d="m 0,0 c -33.901,-18.932 -60.36,-54.881 -68.757,-99.6 -5.52,-29.376 -2.42,-58.147 7.353,-82.997 l 0.066,0.024 c 2.536,1.492 5.089,2.993 7.502,4.394 l 0.008,0.05 c -0.166,2.594 -0.282,5.221 -0.315,7.874 -0.489,31.83 8.181,60.633 22.438,80.917 l 0.008,0.042 c -4.095,35.567 6.872,66.866 31.332,79.888 1.368,0.729 2.761,1.392 4.186,1.989 z"
             style="fill:#008fd4;fill-opacity:1;fill-rule:nonzero;stroke:none"
             id="path258" /></g></g></g></g></svg>
